<svg version="1.1" id="Layer_1" xmlns:x="ns_extend;" xmlns:i="ns_ai;" xmlns:graph="ns_graphs;" xmlns="http://www.w3.org/2000/svg" xmlns:xlink="http://www.w3.org/1999/xlink" x="0px" y="0px" viewBox="0 0 132 75" style="enable-background:new 0 0 132 75;" xml:space="preserve">
 <style type="text/css">
  .st0{fill:#EB1700;}
 </style>
 <metadata>
  <sfw xmlns="ns_sfw;">
   <slices>
   </slices>
   <sliceSourceBounds bottomLeftOrigin="true" height="75" width="132" x="-532.5" y="-122.2">
   </sliceSourceBounds>
  </sfw>
 </metadata>
 <g>
  <g>
   <path class="st0" d="M126.9,17.8C121,6.8,109.6,0,97.2,0h-94C1.4,0,0,1.5,0,3.3c0,0.8,0.3,1.7,0.9,2.3l20.5,20.6
			c1.8,1.8,4.3,2.8,6.8,2.8h66.3c4.7,0,8.6,3.7,8.6,8.5c0,4.7-3.7,8.6-8.5,8.6H49c-1.8,0-3.2,1.5-3.2,3.3c0,0.9,0.3,1.7,0.9,2.3
			l20.5,20.6C69,74,71.5,75,74,75h20.7C121.6,75,141.9,46.3,126.9,17.8">
   </path>
  </g>
 </g>
</svg>